
<svg xmlns="http://www.w3.org/2000/svg" width="2000" height="1000">
<path d="M0 0M1491.226 0Q 1505.591 32.829 1556.694 91.845M673.351 0Q 644.088 51.814 653.023 95.497M772.855 0Q 769.404 47.599 809.972 110.044M1404.937 0Q 1392.318 42.09 1414.979 88.197M1251.17 0Q 1231.064 47.663 1248.691 94.335M390.936 0Q 365.751 38.609 367.742 67.941M527.174 0Q 521.095 34.502 545.559 76.358M195.437 0Q 200.602 37.539 243.487 94.299M101.298 0Q 69.662 79.213 101.416 158.474M1888.089 0Q 1869.346 57.847 1898.553 119.879M1639.356 0Q 1579.656 62.455 1556.694 91.845M965.114 0Q 902.888 72.427 885.936 113.183M1049.449 0Q 1048.682 7.578 1054.84 17.312M1717.863 0Q 1696.858 58.396 1723.466 119.034M1054.84 17.312Q 1069.402 54.369 1124.803 119.41M1054.84 17.312Q 1002.358 103.389 1011.861 172.274M545.559 76.358Q 595.463 64.435 653.023 95.497M1723.466 119.034Q 1810.841 84.439 1898.553 119.879M1414.979 88.197Q 1339.527 145.479 1289.887 152.725M545.559 76.358Q 500.66 134.988 494.494 173.193M1414.979 88.197Q 1449.789 104.542 1513.428 160.267M367.742 67.941Q 315.389 107.108 280.393 111.336M367.742 67.941Q 392.739 95.449 453.457 157.244M1124.803 119.41Q 1191.762 82.095 1248.691 94.335M653.023 95.497Q 661.549 111.815 688.865 142.47M1556.694 91.845Q 1539.947 119.28 1542.948 141.216M243.487 94.299Q 172.187 152.836 129.474 165.767M1124.803 119.41Q 1120.443 125.961 1120.661 130.854M243.487 94.299Q 258.532 95.436 280.393 111.336M1120.661 130.854Q 1129.743 173.087 1182.508 240.059M1120.661 130.854Q 1064.146 185.138 1037.8 206.277M1248.691 94.335Q 1254.216 116.787 1283.226 153.052M1723.466 119.034Q 1713.453 134.188 1714.058 145.578M885.936 113.183Q 937.08 117.543 1011.861 172.274M280.393 111.336Q 264.931 166.513 296.129 227.984M1714.058 145.578Q 1658.109 175.562 1609.403 163.684M809.972 110.044Q 753.514 149.273 712.909 149.676M453.457 157.244Q 374.451 216.332 321.621 222.685M809.972 110.044Q 830.716 108.844 858.22 126.943M885.936 113.183Q 869.326 125.606 858.22 126.943M1905.102 136.815Q 1949.545 125.349 2000 151.842M1898.553 119.879Q 1898.44 127.037 1905.102 136.815M1714.058 145.578Q 1719.52 186.104 1765.659 247.271M688.865 142.47Q 616.519 204.783 575.957 221.932M688.865 142.47Q 699.446 141.264 712.909 149.676M1289.887 152.725Q 1355.266 162.482 1454.842 238.221M1011.861 172.274Q 1018.03 184.088 1037.8 206.277M1609.403 163.684Q 1580.669 165.741 1542.948 141.216M1609.403 163.684Q 1608.739 212.718 1654.521 279.8M453.457 157.244Q 469.137 157.966 491.48 173.898M712.909 149.676Q 691.384 215.673 724.513 286.311M101.416 158.474Q 113.986 156.509 129.474 165.767M101.416 158.474Q 44.148 195.157 0 191.273M1905.102 136.815Q 1894.882 151.125 1894.398 161.153M858.22 126.943Q 842.174 176.722 867.424 230.184M129.474 165.767Q 134.394 184.975 159.481 216.185M1542.948 141.216Q 1524.378 156.646 1513.428 160.267M1894.398 161.153Q 1812.805 229.96 1765.659 247.271M1289.887 152.725Q 1286.491 154.221 1283.226 153.052M321.621 222.685Q 379.351 214.157 450.952 257.361M1894.398 161.153Q 1890.782 195.15 1918.167 238.655M1283.226 153.052Q 1254.82 194.558 1255.122 224.822M1038.566 220.075Q 1106.54 201.279 1182.508 240.059M867.424 230.184Q 946.127 203.771 1029.658 242.253M159.481 216.185Q 213.484 208.53 280.768 249.389M159.481 216.185Q 140.139 247.368 143.126 272.009M1513.428 160.267Q 1495.456 186.235 1495.368 204.979M494.494 173.193Q 524.43 181.843 574.007 222.297M494.494 173.193Q 492.846 174.149 491.48 173.898Q 454.523 223.735 450.952 257.361M1918.167 238.655Q 1951.812 240.468 2000 275.014M575.957 221.932Q 628.829 233.29 712.659 299.329M1037.8 206.277Q 1035.424 213.023 1038.566 220.075M1918.167 238.655Q 1865.686 315.638 1866.528 371.965M143.126 272.009Q 72.951 297.165 0 265.071M295.423 229.619Q 350.513 245.004 441.242 318.718M321.621 222.685Q 307.815 230.433 296.129 227.984M575.957 221.932Q 574.909 222.504 574.007 222.297Q 551.497 269.901 565.748 314.201M1038.566 220.075Q 1029.677 232.946 1029.658 242.253M1495.368 204.979Q 1522.668 238.365 1592.164 310.47M1495.368 204.979Q 1468.457 229.705 1454.842 238.221M1182.508 240.059Q 1185.607 240.87 1190.659 244.941M143.126 272.009Q 137.88 311.769 168.502 361.68M867.424 230.184Q 850.741 256.946 853.191 278.016M1255.122 224.822Q 1218.867 247.774 1190.659 244.941M450.952 257.361Q 433.826 289.981 441.242 318.718M296.129 227.984Q 295.449 228.942 295.423 229.619Q 284.141 242.435 280.768 249.389M1255.122 224.822Q 1257.502 232.465 1268.067 245.285M1190.659 244.941Q 1136.91 318.051 1132.313 367.822M1029.658 242.253Q 1014.371 281.015 1030.178 319.986M1268.067 245.285Q 1295.525 261.767 1349.14 310.679M1268.067 245.285Q 1211.825 343.532 1227.726 425.642M1454.842 238.221Q 1434.092 266.898 1432.748 286.737M280.768 249.389Q 257.099 294.932 267.788 335.282M853.191 278.016Q 787.193 307.899 724.513 286.311M1654.521 279.8Q 1617.209 307.606 1592.164 310.47M1654.521 279.8Q 1702.761 265.722 1755.971 292.224M1765.659 247.271Q 1751.825 271.685 1755.971 292.224M1432.748 286.737Q 1386.156 315.429 1349.14 310.679M853.191 278.016Q 856.023 306.029 886.614 347.411M724.513 286.311Q 715.982 295.191 712.659 299.329M565.748 314.201Q 498.196 363.638 451.992 367.572M565.748 314.201Q 589.623 326.451 634.258 366.104M1432.748 286.737Q 1435.169 319.765 1469.969 367.681M1592.164 310.47Q 1571.836 344.03 1575.724 371.013M1349.14 310.679Q 1341.267 322.907 1342.039 332.295M712.659 299.329Q 687.78 337.235 689.523 365.886M1342.039 332.295Q 1267.417 402.991 1231.697 429.551M1342.039 332.295Q 1343.328 375.125 1385.9 435.499M267.788 335.282Q 352.081 311.697 446.024 359.406M1030.178 319.986Q 952.911 362.411 886.614 347.411M441.242 318.718Q 435.495 338.106 446.024 359.406M1755.971 292.224Q 1756.216 302.726 1766.555 317.462M1030.178 319.986Q 1042.937 335.262 1075.105 368.508M1469.969 367.681Q 1522.18 348.196 1575.724 371.013M1766.555 317.462Q 1676.008 408.025 1637.217 446.854M1766.555 317.462Q 1790.294 329.3 1834.35 368.256M267.788 335.282Q 239.363 366.765 230.095 383.171M634.258 366.104Q 572.792 428.682 547.509 456.56M634.258 366.104Q 661.934 354.942 689.523 365.886M1469.969 367.681Q 1459.633 382.034 1459.029 392.011M168.502 361.68Q 111.039 391.438 60.026 377.805M886.614 347.411Q 866.109 380.897 869.685 407.611M1575.724 371.013Q 1583.265 400.916 1622.159 449.394M60.026 377.805Q 37.736 370.502 0 339.189M168.502 361.68Q 195 360.107 230.095 383.171M1459.029 392.011Q 1413.767 428.381 1385.9 435.499M1459.029 392.011Q 1463.075 448.706 1522.658 530.852M446.024 359.406Q 447.375 362.295 451.992 367.572M689.523 365.886Q 696.015 390.894 728.798 431.612M1132.313 367.822Q 1103.572 379.607 1075.105 368.508M1132.313 367.822Q 1142.346 372.45 1160.608 388.396M60.026 377.805Q 44.043 423.756 65.734 471.99M451.992 367.572Q 448.656 378.106 454.082 389.475M1075.105 368.508Q 1020.104 442.29 1014.42 491.799M1160.608 388.396Q 1095.902 480.359 1094.131 545.732M1160.608 388.396Q 1186.718 393.596 1227.726 425.642M1870.325 373.9Q 1930.726 359.055 2000 396.08M1834.35 368.256Q 1849.697 363.675 1866.528 371.965M1834.35 368.256Q 1770.194 453.722 1762.993 510.645M1866.528 371.965Q 1868.039 372.173 1870.325 373.9Q 1844.737 445.431 1877.525 519.842M454.082 389.475Q 487.378 404.333 547.509 456.56M869.685 407.611Q 794.441 447.789 728.798 431.612M454.082 389.475Q 402.332 448.25 386.844 480.13M1385.9 435.499Q 1352.828 477.683 1347.333 504.439M230.095 383.171Q 228.376 391.561 233.993 401.51M869.685 407.611Q 878.428 441.562 922.836 496.774M269.838 432.612Q 318.837 432.97 386.844 480.13M233.993 401.51Q 245.695 409.892 269.838 432.612M233.993 401.51Q 175.355 474.438 163.833 519.302M269.838 432.612Q 239.928 518.436 280.361 608.47M1227.726 425.642Q 1228.93 426.802 1231.697 429.551M728.798 431.612Q 699.447 480.218 705.208 519.389M547.509 456.56Q 545.46 481.298 566.19 513.508M1637.217 446.854Q 1687.347 453.594 1762.993 510.645M65.734 471.99Q 105.322 476.026 163.833 519.302M1231.697 429.551Q 1231.913 457.522 1258.849 496.354M65.734 471.99Q 20.161 516.902 0 535.519M1637.217 446.854Q 1629.18 451.135 1622.159 449.394M1877.525 519.842Q 1821.936 540.068 1764.433 515.057M1622.159 449.394Q 1603.952 471.106 1599.487 483.749M1877.525 519.842Q 1881.152 523.451 1889.598 531.889M386.844 480.13Q 383.201 492.698 390.141 506.585M1889.598 531.889Q 1949.108 499.037 2000 510.346M1347.492 504.581Q 1428.551 484.132 1521.013 533.091M1599.487 483.749Q 1618.166 538.037 1695.665 630.798M1599.487 483.749Q 1551.651 522.666 1522.658 530.852M1889.598 531.889Q 1863.498 577.752 1871.135 616.23M390.141 506.585Q 314.874 579.484 280.361 608.47M1762.993 510.645Q 1762.831 512.563 1764.433 515.057M1014.42 491.799Q 1043.489 502.823 1094.131 545.732M390.141 506.585Q 417.024 532.272 478.611 593.346M1014.42 491.799Q 987.882 508.304 966.954 505.822M1764.433 515.057Q 1753.343 538.002 1759.881 559.126M163.833 519.302Q 154.871 549.779 171.52 583.332M566.19 513.508Q 599.724 509.103 641.837 534.957M566.19 513.508Q 506.433 570.943 478.611 593.346M922.836 496.774Q 943.085 492.474 966.954 505.822M922.836 496.774Q 885.937 534.02 870.454 550.313M1347.333 504.439Q 1304.708 518.093 1258.849 496.354M1347.333 504.439Q 1347.385 504.478 1347.492 504.581Q 1341.147 545.171 1371.041 595.181M966.954 505.822Q 951.938 558.901 981.753 617.899M1095.401 546.879Q 1142.519 528.783 1190.352 548.667M1258.849 496.354Q 1243.3 514.088 1238.716 523.768M641.837 534.957Q 676.636 514.499 705.208 519.389M870.454 550.313Q 814.226 581.111 765.909 570.09M1094.131 545.732Q 1094.536 546.052 1095.401 546.879M1759.881 559.126Q 1804.087 565.427 1871.135 616.23M1095.401 546.879Q 1064.788 599.357 1072.492 642.671M641.837 534.957Q 592.927 621.595 607.897 694.657M705.208 519.389Q 715.422 531.727 741.277 558.493M870.454 550.313Q 858.345 604.817 893.531 668.551M1238.716 523.768Q 1209.554 545.89 1190.352 548.667M1522.658 530.852Q 1521.387 532.301 1521.013 533.091M1238.716 523.768Q 1232.425 568.349 1266.196 623.921M1521.013 533.091Q 1501.187 581.032 1519.467 628.354M1759.881 559.126Q 1717.73 605.817 1703.991 630.153M1190.352 548.667Q 1144.004 632.135 1159.494 703.26M1371.041 595.181Q 1428.121 590.89 1502.86 639.327M171.52 583.332Q 83.397 623.545 0 595.149M1371.041 595.181Q 1340.581 640.847 1342.007 674.899M741.277 558.493Q 675.06 648.956 669.772 710.816M741.277 558.493Q 751.273 559.365 765.909 570.09Q 762.287 601.565 787.262 641.58M981.753 617.899Q 1022.168 612.138 1072.492 642.671M981.753 617.899Q 947.611 657.946 938.603 680.734M1266.196 623.921Q 1293.906 634.248 1342.007 674.899M1266.196 623.921Q 1213.044 684.35 1197.195 717.178M171.52 583.332Q 181.162 599.702 210.067 631.491M1871.135 616.23Q 1871.665 626.74 1882.408 641.759M787.262 641.58Q 823.108 642.635 873.615 678.231M325.615 648.687Q 404.366 610.094 476.363 631.8M787.262 641.58Q 757.025 683.161 754.87 711.784M478.611 593.346Q 469.796 613.022 476.363 631.8M1882.408 641.759Q 1943.573 612.319 2000 629.915M280.361 608.47Q 269.428 622.151 267.36 630.633M1072.492 642.671Q 1071.373 672.426 1098.165 712.45M325.615 648.687Q 335.738 682.935 382.336 739.872M325.615 648.687Q 300.098 651.311 267.36 630.633M1882.408 641.759Q 1858.755 672.579 1855.445 692.615M1695.665 630.798Q 1699.957 628.81 1703.991 630.153M1695.665 630.798Q 1649.571 667.742 1621.101 674.86M1703.991 630.153Q 1726.682 654.329 1781.043 709.326M1519.467 628.354Q 1550.267 634.885 1599.021 673.238M1519.467 628.354Q 1508.969 637.162 1502.86 639.327Q 1450.629 698.599 1434.95 730.708M476.363 631.8Q 476.744 637.828 483.012 646.516M893.531 668.551Q 881.637 677.375 873.615 678.231M893.531 668.551Q 913.63 665.628 938.603 680.734M210.067 631.491Q 125.987 704.049 78.979 724.172M483.012 646.516Q 535.826 645.609 607.897 694.657M873.615 678.231Q 831.487 730.267 822.87 762.005M267.36 630.633Q 250.933 642.31 239.369 642.79M1342.007 674.899Q 1340.494 683.458 1346.557 693.838M483.012 646.516Q 468.794 667.817 469.446 683.693M210.067 631.491Q 222.458 631.28 239.369 642.79M469.446 683.693Q 414.655 729.204 382.336 739.872M938.603 680.734Q 949.05 711.636 992.908 764.26M1346.557 693.838Q 1276.107 743.13 1225.764 744.105M1599.021 673.238Q 1609.736 669.633 1621.101 674.86M1599.021 673.238Q 1527.781 771.506 1522.992 839.363M469.446 683.693Q 455.673 731.668 482.343 784.802M1621.101 674.86Q 1620.988 725.141 1668.718 794.469M754.87 711.784Q 712.514 728.32 669.772 710.816M239.369 642.79Q 234.68 657.782 242.483 674.02M754.87 711.784Q 771.043 726.362 807.261 761.896M1346.557 693.838Q 1362.472 704.054 1394.179 733.32M1855.445 692.615Q 1814.901 715.851 1781.043 709.326M242.483 674.02Q 272.765 719.709 358.096 811.643M1855.445 692.615Q 1869.203 727.627 1921.549 789.082M242.483 674.02Q 194.994 750.326 202.087 810.473M382.336 739.872Q 355.862 780.605 358.096 811.643M607.897 694.657Q 614.677 705.43 634.299 726.764M1159.494 703.26Q 1126.991 720.121 1098.165 712.45M1159.494 703.26Q 1175.561 702.679 1197.195 717.178M1781.043 709.326Q 1769.063 727.306 1769.642 740.725M669.772 710.816Q 648.846 725.885 634.299 726.764M1197.195 717.178Q 1206.094 724.927 1225.764 744.105M78.979 724.172Q 41.672 734.513 0 713.262M78.979 724.172Q 89.566 749.409 128.221 794.342M1769.642 740.725Q 1708.431 787.782 1668.718 794.469M1098.165 712.45Q 1064.993 747.606 1052.668 764.563M1769.642 740.725Q 1767.339 786.112 1807.384 846.597M1434.95 730.708Q 1414.042 740.168 1394.179 733.32M482.343 784.802Q 556.2 752.892 627.803 779.165M1434.95 730.708Q 1457.24 767.427 1522.992 839.363M1394.179 733.32Q 1331.611 813.879 1321.931 865.54M1225.764 744.105Q 1216.13 789.724 1246.272 843.547M807.261 761.896Q 815.043 758.829 822.87 762.005M807.261 761.896Q 727.753 845.218 697.311 884.561M634.299 726.764Q 620.571 754.264 627.803 779.165M822.87 762.005Q 845.201 778.828 892.061 823.326M482.343 784.802Q 455.452 816.407 448.417 834.441M128.221 794.342Q 161.927 787.634 202.087 810.473M128.221 794.342Q 103.256 822.797 95.881 838.316M992.908 764.26Q 930.671 813.962 892.061 823.326M992.908 764.26Q 1007.868 761.396 1025.801 771.691M1921.549 789.082Q 1852.963 840.672 1807.384 846.597M1668.718 794.469Q 1652.702 820.181 1655.072 840.434M1052.668 764.563Q 1077.432 798.072 1143.543 867.93M1052.668 764.563Q 1037.809 773.5 1025.801 771.691M95.881 838.316Q 108.975 852.855 140.905 885.405M1921.549 789.082Q 1925.131 788.919 1929.922 792.105M1025.801 771.691Q 987.977 850.342 1010.649 922.932M95.881 838.316Q 36.103 887.086 0 897.503M1929.922 792.105Q 1878.956 873.328 1885.928 936.953M1929.922 792.105Q 1964.069 780.321 2000 796.567M627.803 779.165Q 623.221 811.217 647.42 851.115M202.087 810.473Q 207.311 833.163 236.135 869.473M358.096 811.643Q 356.632 816.838 359.559 822.619M448.417 834.441Q 406.353 846.301 359.559 822.619M892.061 823.326Q 869.779 864.319 878.05 899.707M1523.425 840.745Q 1430.036 899.421 1356.952 891.507M140.905 885.405Q 191.706 858.393 236.135 869.473M140.905 885.405Q 54.107 968.254 13.148 1000M448.417 834.441Q 460.92 867.104 509.293 924.117M1143.543 867.93Q 1066.096 922.01 1010.649 922.932M359.559 822.619Q 331.582 850.812 319.797 863.101M1807.384 846.597Q 1790.18 870.715 1789.393 887.637M1655.072 840.434Q 1597.051 875.423 1550.252 868.485M1655.072 840.434Q 1686.107 857.411 1745.135 910.414M1246.272 843.547Q 1196.485 877.824 1160.376 877.743M1246.272 843.547Q 1264.414 845.672 1291.491 865.884M1143.543 867.93Q 1149.997 869.47 1160.376 877.743M1522.992 839.363Q 1522.932 839.967 1523.425 840.745Q 1531.29 849.25 1550.252 868.485M1550.142 869.703Q 1593.425 907.114 1688.828 1000M319.797 863.101Q 339.444 912.74 413.851 1000M319.797 863.101Q 281.221 886.84 250.559 882.885M1160.376 877.743Q 1125.592 943.005 1139.71 1000M647.42 851.115Q 563.756 915.241 509.293 924.117M1321.931 865.54Q 1306.642 871.8 1291.491 865.884M878.05 899.707Q 937.083 888.404 1007.841 929.018M1321.931 865.54Q 1334.249 871.519 1356.952 891.507M1291.491 865.884Q 1243.512 941.404 1249.178 1000M236.135 869.473Q 240.665 873.294 250.559 882.885M647.42 851.115Q 665.676 857.86 697.311 884.561M1789.393 887.637Q 1827.798 892.988 1885.928 936.953M1789.393 887.637Q 1762.709 907.877 1745.135 910.414M1550.252 868.485Q 1549.953 869.116 1550.142 869.703M1356.952 891.507Q 1356.919 937.087 1400.283 1000M1550.142 869.703Q 1506.999 941.685 1515.976 1000M861.921 915.436Q 790.827 939.328 715.402 904.612M250.559 882.885Q 212.363 947.352 221.012 1000M878.05 899.707Q 866.84 910.797 861.921 915.436M1010.649 922.932Q 1008.027 926.536 1007.841 929.018M700.506 889.646Q 632.302 963.276 608.239 1000M1885.928 936.953Q 1901.047 957.385 1941.385 1000M697.311 884.561Q 697.892 886.465 700.506 889.646M1007.841 929.018Q 1006.431 959.394 1033.415 1000M700.506 889.646Q 704.961 894.15 715.402 904.612M861.921 915.436Q 850.138 955.666 872.181 1000M1745.135 910.414Q 1717.428 959.123 1725.556 1000M715.402 904.612Q 699.535 951.022 721.822 1000M509.293 924.117Q 482.978 966.514 487.016 1000M608.239 1000Q 665.031 977.283 721.822 1000Q 797.001 969.928 872.181 1000M1725.556 1000Q 1833.47 956.834 1941.385 1000M872.181 1000Q 952.798 967.753 1033.415 1000M1249.178 1000Q 1324.731 969.779 1400.283 1000M487.016 1000Q 547.628 975.755 608.239 1000M221.012 1000Q 317.432 961.432 413.851 1000M1515.976 1000Q 1602.402 965.43 1688.828 1000M1139.71 1000Q 1194.444 978.106 1249.178 1000M1688.828 1000Q 1707.192 992.654 1725.556 1000M1033.415 1000Q 1086.563 978.741 1139.71 1000M13.148 1000Q 117.08 958.427 221.012 1000M1400.283 1000Q 1458.129 976.861 1515.976 1000M413.851 1000Q 450.433 985.367 487.016 1000M1941.385 1000Q 1970.692 988.277 2000 1000Q 2040.687 898.284 2000 796.567M0 897.503Q -20.499 948.752 0 1000Q 6.574 997.37 13.148 1000M0 713.262Q -36.848 805.383 0 897.503M2000 796.567Q 2033.33 713.241 2000 629.915M0 595.149Q -23.623 654.206 0 713.262M2000 629.915Q 2023.914 570.131 2000 510.346M0 535.519Q -11.926 565.334 0 595.149M2000 510.346Q 2022.853 453.213 2000 396.08M0 339.189Q -39.266 437.354 0 535.519M0 265.071Q -14.824 302.13 0 339.189M2000 396.08Q 2024.213 335.547 2000 275.014M0 191.273Q -14.76 228.172 0 265.071M2000 275.014Q 2024.634 213.428 2000 151.842M1049.449 0Q 1007.282 16.867 965.114 0M1717.863 0Q 1678.61 15.701 1639.356 0M1888.089 0Q 1802.976 34.045 1717.863 0M101.298 0Q 50.649 20.26 0 0Q -38.255 95.636 0 191.273M195.437 0Q 148.368 18.828 101.298 0M2000 151.842Q 2030.368 75.921 2000 0Q 1944.045 22.382 1888.089 0M527.174 0Q 459.055 27.248 390.936 0M1404.937 0Q 1328.054 30.753 1251.17 0Q 1150.31 40.344 1049.449 0M772.855 0Q 723.103 19.901 673.351 0M1491.226 0Q 1448.082 17.258 1404.937 0M673.351 0Q 600.263 29.236 527.174 0M390.936 0Q 293.187 39.1 195.437 0M965.114 0Q 868.985 38.452 772.855 0M1639.356 0Q 1565.291 29.626 1491.226 0" fill="none" stroke="blue"/>
</svg>
