<?xml version="1.0" encoding="UTF-8" standalone="no"?>
<svg
   xmlns:dc="http://purl.org/dc/elements/1.1/"
   xmlns:cc="http://creativecommons.org/ns#"
   xmlns:rdf="http://www.w3.org/1999/02/22-rdf-syntax-ns#"
   xmlns:svg="http://www.w3.org/2000/svg"
   xmlns="http://www.w3.org/2000/svg"
   xmlns:sodipodi="http://sodipodi.sourceforge.net/DTD/sodipodi-0.dtd"
   xmlns:inkscape="http://www.inkscape.org/namespaces/inkscape"
   width="22in"
   height="11in"
   version="1.1"
   id="svg4"
   sodipodi:docname="puzzle.svg"
   inkscape:version="0.92.4 (5da689c313, 2019-01-14)">
  <metadata
     id="metadata10">
    <rdf:RDF>
      <cc:Work
         rdf:about="">
        <dc:format>image/svg+xml</dc:format>
        <dc:type
           rdf:resource="http://purl.org/dc/dcmitype/StillImage" />
        <dc:title></dc:title>
      </cc:Work>
    </rdf:RDF>
  </metadata>
  <defs
     id="defs8" />
  <sodipodi:namedview
     pagecolor="#ffffff"
     bordercolor="#666666"
     borderopacity="1"
     objecttolerance="10"
     gridtolerance="10"
     guidetolerance="10"
     inkscape:pageopacity="0"
     inkscape:pageshadow="2"
     inkscape:window-width="1920"
     inkscape:window-height="1017"
     id="namedview6"
     showgrid="false"
     inkscape:snap-global="true"
     inkscape:snap-page="true"
     inkscape:zoom="0.472"
     inkscape:cx="1268.0118"
     inkscape:cy="366.36651"
     inkscape:window-x="-8"
     inkscape:window-y="-8"
     inkscape:window-maximized="1"
     inkscape:current-layer="svg4"
     units="in"
     inkscape:snap-nodes="false"
     inkscape:snap-bbox="true"
     inkscape:snap-bbox-midpoints="true"
     inkscape:bbox-nodes="true" />
  <path
     style="opacity:1;fill:#000000;fill-opacity:1;stroke:none;stroke-width:1;stroke-linecap:square;stroke-linejoin:miter;stroke-miterlimit:4;stroke-dasharray:none;stroke-opacity:1"
     d="M 472.19336 0 C 476.11729 2.1519684 482.4656 1.805135 490.01172 0.31835938 C 490.02595 0.21222627 490.03391 0.10614404 490.04688 0 L 472.19336 0 z M 490.01172 0.31835938 C 487.95928 15.622608 472.68802 30.736136 427.23828 23.675781 C 323.54337 7.5673768 382.45034 47.877523 490.01758 53.78125 C 597.58481 59.684977 371.42974 116.05115 448.17969 137.18555 C 524.92963 158.31994 545.83657 78.97996 559.68945 14.191406 C 560.94927 8.2993597 561.14257 3.645463 560.47461 0 L 491.51953 0 C 491.01651 0.10651426 490.50484 0.22120196 490.01172 0.31835938 z M 762.30078 0 C 742.46294 8.4260731 718.80535 16.684336 691.16016 25.300781 C 598.51197 54.177333 827.86872 -8.9666356 778.90039 26.837891 C 729.93207 62.642416 798.71624 178.04727 830.71094 137.91602 C 855.43046 106.91008 792.73887 33.22638 805.57422 0 L 762.30078 0 z M 1166.377 0 C 1173.4268 17.767568 1186.2705 38.186868 1204.4121 59.667969 C 1283.6812 153.52907 1133.7652 290.65759 1200.4336 288.10156 C 1267.102 285.54553 1238.7306 88.433922 1288.3789 183.22852 C 1292.9345 191.92666 1296.2314 201.37806 1298.5156 211.19922 C 1345.6111 64.72094 1434.7497 48.010809 1363.7598 0 L 1166.377 0 z M 1298.5156 211.19922 C 1294.6455 223.23615 1291.0508 236.1266 1287.8613 250.00586 C 1243.6713 442.30387 1321.125 308.41155 1298.5156 211.19922 z M 1963.2891 0 C 1954.7137 25.79794 1932.7887 35.324591 1916.7637 38.345703 C 1955.2866 43.901593 1977.3892 86.155526 2016.2559 190.4375 C 2057.9301 302.25244 2017.9539 57.193761 2099.002 17.097656 C 2104.0136 14.618272 2108.3297 12.278804 2112 10.066406 L 2112 0 L 1963.2891 0 z M 1916.7637 38.345703 C 1913.9809 37.944365 1911.1151 37.729008 1908.1484 37.701172 C 1889.6174 37.527295 1899.9315 41.51899 1916.7637 38.345703 z M 146.25781 29.693359 C 25.341265 28.9985 290.42976 331.22601 139.34766 367.05469 C -25.938755 406.25187 -23.372133 373.86857 139.64258 483.75977 C 229.6609 544.44276 263.56474 509.75416 286.91016 481.1543 C 244.59652 451.64764 215.74153 403.15148 313.90039 378.58398 C 504.80689 330.80332 410.71378 106.97686 191.26562 38.396484 C 172.4068 32.502859 157.62604 29.758688 146.25781 29.693359 z M 286.91016 481.1543 C 326.89116 509.03434 378.88775 519.96234 347.11914 477.71289 C 317.83782 438.77132 305.84109 457.9625 286.91016 481.1543 z M 1024.9043 58.724609 C 1009.5724 58.844556 1005.1654 206.3103 930.33789 180.96094 C 942.06852 222.87624 993.99604 237.06649 1026.6621 164.38477 C 1061.0782 87.809186 1049.0537 91.175836 1028.8652 61.730469 C 1027.4457 59.660091 1026.1394 58.714947 1024.9043 58.724609 z M 930.33789 180.96094 C 929.70943 178.71537 929.18931 176.39565 928.80078 174 C 923.65932 142.2982 885.02544 138.17057 873.97852 134.10156 C 874.55794 143.0228 884.3727 155.96793 914.78906 173.72266 C 920.28721 176.93205 925.46064 179.30867 930.33789 180.96094 z M 873.97852 134.10156 C 873.85179 132.1504 874.17187 130.3944 874.81055 128.82031 C 869.6292 131.31282 870.18935 132.70587 873.97852 134.10156 z M 874.81055 128.82031 C 876.97222 127.78043 880.10745 126.55158 884.43945 125.04688 C 912.172 115.41398 880.53054 114.72287 874.81055 128.82031 z M 672.75781 76.980469 C 667.03559 76.993265 661.55205 78.929076 657.58008 83.445312 C 651.74613 90.078658 653.07765 92.958582 656.49023 94.001953 C 654.47479 94.343413 652.241 94.738135 649.63672 95.232422 C 600.48376 104.56156 600.45939 62.288882 583.26953 86.306641 C 566.07967 110.3244 657.18512 68.707412 657.26562 134.48047 C 657.26595 134.74492 657.26081 134.99123 657.25977 135.25195 C 661.64254 131.91658 667.17649 128.7062 674.12695 125.85156 C 721.31639 106.47027 695.20653 76.930268 672.75781 76.980469 z M 657.25977 135.25195 C 624.4513 160.2198 657.03215 192.2242 657.25977 135.25195 z M 1720.7188 88.046875 C 1706.4923 88.079897 1689.2113 89.341876 1668.0234 91.689453 C 1498.5206 110.47007 1614.9635 167.99798 1625.0156 339.74023 C 1635.0677 511.48249 1193.2242 349.42882 1341.4805 465.31055 C 1489.7367 581.19227 1601.6741 802.79864 1635.0781 588.94531 C 1668.4822 375.09198 1968.7658 508.75827 1862.873 316.21875 C 1827.3806 251.68455 1812.9347 203.39472 1802.8965 167.99414 C 1831.4618 187.64876 1890.2327 229.50521 1885.0059 271.10156 C 1875.8499 343.9663 1898.3201 264.97765 1977.8203 342.69141 C 1978.1159 342.98038 1978.406 343.25231 1978.6992 343.5332 C 1976.233 347.85598 1973.6933 352.53693 1971.0684 357.66406 C 1892.8306 510.47869 1912.0717 535.54876 1990.0625 436.88477 C 2009.7837 411.936 2017.1747 385.58952 2015.2246 359.39258 C 2044.4777 350.76693 2038.3683 274.58704 2001.6133 311.40039 C 1972.7282 251.98292 1902.8369 198.59656 1829.9121 170.99219 C 1816.7823 166.02212 1807.3546 162.49383 1800.6562 160.10938 C 1786.1516 108.8167 1779.2701 87.910965 1720.7188 88.046875 z M 1366.0781 119.13086 C 1364.9078 119.10937 1363.898 119.11075 1363.0371 119.13672 C 1338.4415 119.87864 1435.9711 140.70606 1417.7246 221.29102 C 1394.3691 324.43976 1392.4398 308.00171 1378.8359 357.66602 C 1365.2321 407.33032 1506.2038 262.67964 1489.0293 214.92383 C 1471.8548 167.16802 1424.9511 234.58567 1425.125 188.76367 C 1425.2989 142.94167 1560.5391 131.83272 1417.6445 122.36523 C 1390.2937 120.5531 1374.2701 119.28132 1366.0781 119.13086 z M 739.16602 144.62305 C 707.48213 144.95418 661.60155 166.66444 630.2168 211.44141 C 627.36175 215.51474 624.94398 219.09865 622.91602 222.23828 C 618.88339 224.86528 614.24789 228.00771 608.85938 231.80469 C 536.13944 283.0462 464.89842 312.81651 486.7832 358.18359 C 480.78581 365.98308 475.14322 374.21021 470.11133 382.71484 C 477.43771 379.76878 485.65012 375.78269 494.58594 370.27539 C 504.5436 382.74251 521.19674 396.45618 546.17383 412.06055 C 676.30774 493.36135 671.49012 394.03952 775.71094 409.2832 C 879.93175 424.52689 727.70289 273.24957 767.08789 198.88672 C 786.165 162.86721 768.92967 144.31198 739.16602 144.62305 z M 470.11133 382.71484 C 430.41955 398.67558 416.90904 384.90879 452.82422 421.83984 C 456.57847 408.48678 462.66676 395.29727 470.11133 382.71484 z M 452.82422 421.83984 C 446.45754 444.48474 446.7609 467.57153 458.30273 488.85742 C 475.41563 472.43766 483.3091 453.26579 457.90234 427.06836 C 455.97787 425.084 454.52333 423.58702 452.82422 421.83984 z M 458.30273 488.85742 C 432.6076 513.5118 386.11655 531.9599 400.26562 558.64453 C 423.83796 603.10107 390.36709 488.5354 410.7207 562.51172 C 431.07431 636.48803 579.69728 617.7506 473.46875 509.17383 C 467.08598 502.64996 462.09456 495.85046 458.30273 488.85742 z M 982.96484 258.875 C 980.73302 258.8859 988.20428 313.10648 986.17969 421.99414 C 986.16829 422.60701 986.1511 423.16864 986.13867 423.77344 C 993.58584 406.57576 1004.493 388.95391 1020.0801 373.66016 C 1018.4814 368.16468 1016.7429 362.61752 1014.8125 357.01172 C 992.30554 291.65081 984.70071 258.86652 982.96484 258.875 z M 1020.0801 373.66016 C 1061.0875 514.62089 997.09933 617.37292 1037.5684 583.30078 C 1079.6151 547.90031 1208.6273 613.96891 1136.5938 521.83398 C 1064.5601 429.69906 1196.9647 283.9169 1062.1016 344.98242 C 1045.296 352.59192 1031.4468 362.50738 1020.0801 373.66016 z M 986.13867 423.77344 C 955.5733 494.35778 983.38627 557.75161 986.13867 423.77344 z M 2005.1348 497.67383 C 1989.4553 497.33178 1973.49 503.87915 1959.5664 520.9082 C 1905.1283 587.4877 1803.3866 543.69557 1823.9414 585.56641 C 1823.8404 576.97588 1832.665 572.88393 1862.0938 583.77539 C 1954.8308 618.09702 1960.5037 641.80487 2017.7461 627.14844 C 2074.9885 612.492 2021.6101 626.27908 2068.5742 596.34375 C 2104.5311 573.42451 2056.3545 498.79117 2005.1348 497.67383 z M 1823.9414 585.56641 C 1824.1587 604.04671 1865.7378 643.37072 1832.7344 599.30664 C 1828.6903 593.90725 1825.8178 589.38864 1823.9414 585.56641 z M 1321.2441 535.18945 C 1263.245 534.57152 1208.3537 584.28325 1174.791 625.95898 C 1122.4006 691.01379 1177.9172 683.71182 1323.3516 655.5293 C 1329.9786 654.24509 1335.8459 653.01311 1341.0469 651.8457 C 1308.8655 668.82984 1266.3132 707.09663 1274.1426 780.62891 C 1290.7957 937.03273 1351.4994 726.72713 1433.9609 647.26562 C 1441.0396 640.44452 1447.4143 635.3032 1453.1289 631.46875 C 1443.435 623.96928 1431.9003 612.09244 1418.5684 594.04883 C 1387.2945 551.72227 1353.7803 535.5361 1321.2441 535.18945 z M 1453.1289 631.46875 C 1501.2795 668.71932 1503.7866 597.47758 1453.1289 631.46875 z M 877.46875 544.26758 C 874.43784 544.23555 871.83865 545.49172 869.79297 548.24023 C 843.60827 583.42119 876.37378 526.37457 739.08984 564.46484 C 601.80591 602.55512 777.49893 667.73541 790.38867 723.38477 C 803.27842 779.03412 895.00627 586.41334 882.5918 696.86719 C 870.17733 807.32104 917.34996 762.93673 965.09766 742.77734 C 966.64665 742.12335 968.01925 741.26635 969.23047 740.22852 C 969.4977 743.06454 969.8031 745.9642 970.19141 749 C 977.59821 806.9072 983.15888 851.15469 992.17773 887.36523 C 996.19229 890.70968 1002.0832 896.19535 1010.3223 904.35547 C 1103.929 997.06476 1138.6719 801.18665 1115.2598 745.12891 C 1091.8476 689.07116 1109.9594 849.74636 1082.916 763.59766 C 1061.1273 694.18803 990.17584 640.28249 972.375 691.95508 C 957.09889 632.76869 902.53113 544.53242 877.46875 544.26758 z M 992.17773 887.36523 C 980.47143 877.61294 985.05355 886.43337 996.45312 903.03906 C 994.93804 897.98347 993.52135 892.75984 992.17773 887.36523 z M 996.45312 903.03906 C 1008.2777 942.49524 1025.8554 972.19988 1057.5605 1000.918 C 1098.8696 1038.3351 1025.5595 945.43817 996.45312 903.03906 z M 383.52148 636.66016 C 374.58825 636.81093 381.24994 648.04878 394.93945 663.05859 C 357.36332 654.71276 321.50283 659.12538 309.69727 680.80859 C 285.34731 725.53202 377.14229 705.35901 428.52734 756.82422 C 479.9124 808.28943 434.87791 898.58126 527.28711 854.34375 C 619.69631 810.10624 514.14379 694.8232 408.11914 644.91797 C 395.69438 639.0697 387.81126 636.58775 383.52148 636.66016 z M 1816.5293 640.16797 C 1808.6214 640.00994 1794.4154 647.60833 1772.3613 665.6582 C 1623.7865 787.25734 1634.565 590.09437 1635.7168 701.63281 C 1636.8686 813.17126 1390.0863 665.43818 1543.6211 759.3125 C 1681.0329 843.32892 1701.1311 761.02865 1701.377 848.84766 C 1774.43 773.70716 1849.1867 640.82059 1816.5293 640.16797 z M 1701.377 848.84766 C 1672.9471 878.08983 1644.7748 898.60608 1623.293 899.15039 C 1533.2451 901.43203 1697.382 1035.1385 1700.8184 887.19336 C 1701.1792 871.65739 1701.4058 859.15172 1701.377 848.84766 z M 179.77539 650.26758 C 175.66661 650.87772 182.02746 728.68025 97.554688 777.19531 C 55.517585 801.33839 21.756048 815.09683 0 824.54688 L 0 857.48828 C 8.7542342 860.80114 19.746775 864.64547 33.240234 869.28711 C 55.335873 876.88783 68.836177 880.3913 76.509766 881.89258 C 64.745657 883.0271 45.203753 891.7388 48.300781 932.02734 C 52.91332 992.03082 54.916489 929.82806 81.232422 882.69531 C 86.587227 883.37091 85.634447 882.2177 81.703125 881.85547 C 94.174693 859.84852 112.01791 841.32854 138.02344 840.44531 C 219.83788 837.66664 242.30985 817.63064 198.20508 698.79297 C 185.11148 663.51303 181.51021 650.00996 179.77539 650.26758 z M 2087.6504 695.375 C 2069.9736 695.52174 2049.2926 701.84801 2025.4414 716.7207 C 2020.4699 719.82073 2016.0879 722.79287 2012.25 725.64062 C 1896.4599 676.12415 1936.8568 751.00551 1896.0508 778.64648 C 1853.7758 807.28254 1917.3768 879.70241 2000.3086 927.2168 C 2047.3022 954.14097 2083.9762 940.76486 2112 915.42578 L 2112 699.53711 C 2104.6221 696.79861 2096.5193 695.30138 2087.6504 695.375 z M 625.30273 726.10938 C 615.4086 726.56327 608.91445 746.6602 614.16211 794.68555 C 630.95463 948.36666 485.07932 965.33239 576.20312 970.86523 C 610.12541 972.92492 630.56953 960.74449 643.21484 947.78125 C 645.0266 939.71652 647.60476 930.56695 651.14453 920.10547 C 685.29246 819.18446 647.06982 725.11076 625.30273 726.10938 z M 643.21484 947.78125 C 634.50349 986.55835 644.15654 999.35186 656.9668 1002.4434 C 663.47427 984.87243 670.14564 962.11951 667.77344 940.02344 C 663.67349 901.83409 664.53804 925.92196 643.21484 947.78125 z M 656.9668 1002.4434 C 645.55734 1033.2502 634.6491 1048.0694 673.85938 1015.082 C 709.94606 984.7225 678.87653 1007.7308 656.9668 1002.4434 z M 748.26758 775.54102 C 679.06339 775.7511 687.42221 939.82811 749.33984 1020.0137 C 762.84918 1037.5087 773.6754 1049.0365 783.02148 1056 L 827.92969 1056 C 841.86424 1046.7054 858.12145 1031.4275 883.0332 1017.4551 C 888.57041 1014.3494 892.44342 1012.251 895.65039 1010.5449 C 884.30354 1014.8857 870.81985 1015.4507 914.68555 969.96094 C 995.9917 885.64446 1015.914 871.20599 918.51953 911.10938 C 821.12509 951.01274 820.89771 777.97104 749.91602 775.56641 C 749.36147 775.54762 748.81249 775.53936 748.26758 775.54102 z M 895.65039 1010.5449 C 903.57295 1007.5141 910.06784 1002.8751 895.65039 1010.5449 z M 1343.3848 856.24805 C 1317.0792 856.92572 1300.6799 879.40807 1277.9102 944.30859 C 1269.4245 968.49512 1269.3388 985.17867 1274.1719 996.33789 C 1203.1909 1009.1136 1224.656 1032.4217 1283.0469 1011.2461 C 1284.0656 1010.8767 1285.0634 1010.4816 1286.0449 1010.0684 C 1322.7418 1032.6937 1407.339 984.60776 1319.2266 990.96094 C 1316.5356 991.15497 1313.9372 991.36629 1311.3809 991.58594 C 1349.3914 950.04907 1353.2502 875.39115 1445.7539 949.67969 C 1557.0031 1039.0224 1616.644 949.54939 1480.709 903.33984 C 1410.6175 879.51304 1371.3875 855.52666 1343.3848 856.24805 z M 418.22266 961.57812 C 405.25146 961.61681 389.50311 963.79341 370.62695 968.52344 C 236.39651 1002.1592 113.50075 967.60012 157.31445 1006.8145 C 177.85808 1025.2014 204.64098 1035.2447 229.06641 1056 L 291.26562 1056 C 295.80257 1048.1683 302.03084 1044.0864 310.41211 1045.5117 C 319.44296 1047.0476 327.06999 1050.8378 333.67188 1056 L 454.93555 1056 C 478.77089 1006.3586 477.83086 961.40036 418.22266 961.57812 z "
     id="path875" />
  <path
     inkscape:connector-curvature="0"
     style="fill:none;stroke:#0000ff"
     d="m 55.644745,28.000032 m 1491.226055,0 q 14.365,32.829 65.468,91.844998 M 728.99576,28.000032 q -29.263,51.814 -20.328,95.496998 m 119.832,-95.496998 q -3.451,47.599 37.117,110.043998 M 1460.5818,28.000032 q -12.619,42.09 10.042,88.196998 m -163.809,-88.196998 q -20.106,47.663 -2.479,94.334998 M 446.58076,28.000032 q -25.185,38.609 -23.194,67.941 m 159.432,-67.941 q -6.079,34.502 18.385,76.357998 M 251.08175,28.000032 q 5.165,37.539 48.05,94.298998 M 156.94276,28.000032 q -31.63601,79.212998 0.118,158.474018 M 1943.7338,28.000032 q -18.743,57.847 10.464,119.878998 M 1695.0008,28.000032 q -59.7,62.455 -82.662,91.844998 m -591.58,-91.844998 Q 958.53276,100.42703 941.58076,141.18303 M 1105.0937,28.000032 q -0.767,7.578 5.391,17.312 m 663.0231,-17.312 q -21.005,58.396 5.603,119.033998 M 1110.4847,45.312032 q 14.562,37.057 69.963,102.097998 m -69.963,-102.097998 q -52.482,86.076998 -42.979,154.962018 M 601.20376,104.35803 q 49.904,-11.922998 107.464,19.139 m 1070.44304,23.537 q 87.375,-34.595 175.087,0.845 m -483.574,-31.682 q -75.452,57.282 -125.092,64.52802 M 601.20376,104.35803 q -44.899,58.63 -51.065,96.83502 m 920.48504,-84.99602 q 34.81,16.345 98.449,72.07002 M 423.38676,95.941032 q -52.353,39.166998 -87.34901,43.394998 m 87.34901,-43.394998 q 24.997,27.507998 85.715,89.303018 m 671.34594,-37.83402 q 66.959,-37.315 123.8881,-25.075 m -595.66804,1.162 q 8.526,16.318 35.842,46.973 m 867.82904,-50.625 q -16.747,27.435 -13.746,49.371 m -1299.46105,-46.917 q -71.3,58.53702 -114.013,71.46802 m 995.32895,-46.35702 q -4.36,6.551 -4.142,11.444 m -877.17395,-36.555 q 15.045,1.137 36.906,17.037 m 840.26795,19.518 q 9.082,42.23302 61.847,109.20502 m -61.847,-109.20502 q -56.515,54.28402 -82.861,75.42302 m 210.8911,-111.94202 q 5.525,22.452 34.535,58.71702 m 440.24,-34.01802 q -10.013,15.154 -9.408,26.544 m -828.12204,-32.395 q 51.144,4.36 125.92494,59.09102 M 336.03775,139.33603 q -15.462,55.17702 15.736,116.64802 M 1769.7028,173.57803 q -55.949,29.98402 -104.655,18.10602 M 865.61676,138.04403 q -56.458,39.22902 -97.063,39.63202 m -259.452,7.568 q -79.006,59.088 -131.836,65.441 m 488.351,-112.64102 q 20.744,-1.2 48.248,16.899 m 27.716,-13.76 q -16.61,12.423 -27.716,13.76 m 1046.88204,9.872 q 44.443,-11.466 94.898,15.02702 m -101.447,-31.96302 q -0.113,7.158 6.549,16.936 m -191.044,8.763 q 5.462,40.52602 51.601,101.69302 M 744.50976,170.47003 q -72.346,62.31302 -112.908,79.46202 m 112.908,-79.46202 q 10.581,-1.206 24.044,7.20602 m 576.97804,3.049 q 65.379,9.757 164.955,85.496 m -442.9811,-65.947 q 6.169,11.814 25.939,34.003 m 571.6031,-42.593 q -28.734,2.057 -66.455,-22.46802 m 66.455,22.46802 q -0.664,49.034 45.118,116.116 M 509.10176,185.24405 q 15.68,0.722 38.023,16.654 m 221.429,-24.222 q -21.525,65.997 11.604,136.635 m -623.097,-127.837 q 12.56999,-1.965 28.05799,7.293 m -28.05799,-7.293 q -57.268015,36.683 -101.416015,32.799 M 1960.7468,164.81503 q -10.22,14.31002 -10.704,24.33802 M 913.86476,154.94303 q -16.046,49.77902 9.204,103.24102 m -737.95001,-64.417 q 4.92,19.208 30.007,50.418 M 1598.5928,169.21603 q -18.57,15.43002 -29.52,19.05102 m 380.97,0.886 q -81.593,68.807 -128.739,86.118 m -475.772,-94.546 q -3.396,1.496 -6.661,0.327 m -961.60504,69.633 q 57.73,-8.528 129.331,34.676 m 1443.44604,-96.208 q -3.616,33.997 23.769,77.502 m -634.941,-85.603 q -28.406,41.506 -28.104,71.77 m -216.5561,-4.747 q 67.974,-18.796 143.942,19.984 m -315.08394,-9.875 q 78.70304,-26.413 162.23394,12.069 m -870.17695,-26.068 q 54.003,-7.655 121.287,33.204 m -121.287,-33.204 q -19.342,31.183 -16.355,55.824 m 1370.30205,-111.742 q -17.972,25.968 -18.06,44.712 m -1000.87404,-31.786 q 29.936,8.65 79.513,49.104 m -79.513,-49.104 q -1.648,0.956 -3.014,0.705 -36.957,49.837 -40.528,83.463 m 1467.21504,-18.706 q 33.645,1.813 81.833,36.359 m -1424.04304,-53.082 q 52.872,11.358 136.702,77.397 m 325.14094,-93.052 q -2.376,6.746 0.766,13.798 m 879.6011,18.58 q -52.481,76.983 -51.639,133.31 m -1723.40205,-99.956 q -70.175,25.156 -143.126005,-6.938 m 295.423005,-35.452 q 55.09001,15.385 145.81901,89.099 m -119.621,-96.033 q -13.806,7.748 -25.49201,5.299 m 279.82801,-6.052 q -1.048,0.572 -1.95,0.365 -22.51,47.604 -8.259,91.904 m 472.81794,-94.126 q -8.889,12.871 -8.908,22.178 m 465.7101,-37.274 q 27.3,33.386 96.796,105.491 m -96.796,-105.491 q -26.911,24.726 -40.526,33.242 m -272.3341,1.838 q 3.099,0.811 8.151,4.882 m -1047.53295,27.068 q -5.246,39.76 25.376,89.671 m 698.92201,-131.496 q -16.683,26.762 -14.233,47.832 m 401.93104,-53.194 q -36.255,22.952 -64.4631,20.119 m -739.70694,12.42 q -17.126,32.62 -9.71,61.357 m -145.11301,-90.734 q -0.68,0.958 -0.706,1.635 -11.282,12.816 -14.655,19.77 m 974.35405,-24.567 q 2.38,7.643 12.945,20.463 m -77.4081,-0.344 q -53.749,73.11 -58.346,122.881 m -102.655,-125.569 q -15.287,38.762 0.52,77.733 m 237.8891,-74.701 q 27.458,16.482 81.073,65.394 m -81.073,-65.394 q -56.242,98.247 -40.341,180.357 m 227.116,-187.421 q -20.75,28.677 -22.094,48.516 m -1151.98005,-37.348 q -23.669,45.543 -12.98,85.893 m 585.40301,-57.266 q -65.998,29.883 -128.678,8.295 m 930.00804,-6.511 q -37.312,27.806 -62.357,30.67 m 62.357,-30.67 q 48.24,-14.078 101.45,12.424 m 9.688,-44.953 q -13.834,24.414 -9.688,44.953 m -323.223,-5.487 q -46.592,28.692 -83.608,23.942 m -495.94904,-32.663 q 2.832,28.013 33.423,69.395 m -162.101,-61.1 q -8.531,8.88 -11.854,13.018 m -146.911,14.872 q -67.552,49.437 -113.756,53.371 m 113.756,-53.371 q 23.875,12.25 68.51,51.903 m 798.49004,-79.367 q 2.421,33.028 37.221,80.944 m 122.195,-57.211 q -20.328,33.56 -16.44,60.543 m -226.584,-60.334 q -7.873,12.228 -7.101,21.616 m -629.38004,-32.966 q -24.879,37.906 -23.136,66.557 m 652.51604,-33.591 q -74.622,70.696 -110.342,97.256 m 110.342,-97.256 q 1.289,42.83 43.861,103.204 M 323.43275,363.28205 q 84.29301,-23.585 178.23601,24.124 m 584.15394,-39.42 q -77.2669,42.425 -143.56394,27.425 m -445.372,-28.693 q -5.747,19.388 4.782,40.688 m 1309.94704,-67.182 q 0.245,10.502 10.584,25.238 m -736.3771,2.524 q 12.759,15.276 44.927,48.522 m 394.8641,-0.827 q 52.211,-19.485 105.755,3.332 m 190.831,-53.551 q -90.547,90.563 -129.338,129.392 m 129.338,-129.392 q 23.739,11.838 67.795,50.794 m -1566.56205,-32.974 q -28.425,31.483 -37.693,47.889 m 404.16301,-17.067 q -61.466,62.578 -86.749,90.456 m 86.749,-90.456 q 27.676,-11.162 55.265,-0.218 m 780.44604,1.795 q -10.336,14.353 -10.94,24.33 m -1290.52705,-30.331 q -57.463,29.758 -108.476,16.125 m 826.58801,-30.394 q -20.505,33.486 -16.929,60.2 m 706.03904,-36.598 q 7.541,29.903 46.435,78.381 m -1562.13305,-71.589 q -22.290005,-7.303 -60.026005,-38.616 m 168.502005,22.491 q 26.498,-1.573 61.593,21.491 m 1228.93405,8.84 q -45.262,36.37 -73.129,43.488 m 73.129,-43.488 q 4.046,56.695 63.629,138.841 M 501.66876,387.40605 q 1.351,2.889 5.968,8.166 m 237.531,-1.686 q 6.492,25.008 39.275,65.726 m 403.51494,-63.79 q -28.741,11.785 -57.208,0.686 m 57.208,-0.686 q 10.033,4.628 28.295,20.574 m -1100.58195,-10.591 q -15.983005,45.951 5.708,94.185 m 386.25801,-104.418 q -3.336,10.534 2.09,21.903 m 621.02294,-20.967 q -55.001,73.782 -60.685,123.291 m 146.188,-103.403 q -64.706,91.963 -66.477,157.336 m 66.477,-157.336 q 26.11,5.2 67.1181,37.246 m 642.599,-51.742 q 60.401,-14.845 129.675,22.18 m -165.65,-27.824 q 15.347,-4.581 32.178,3.709 m -32.178,-3.709 q -64.156,85.466 -71.357,142.389 m 103.535,-138.68 q 1.511,0.208 3.797,1.935 -25.588,71.531 7.2,145.942 M 509.72676,417.47505 q 33.296,14.858 93.427,67.085 m 322.176,-48.949 q -75.244,40.178 -140.887,24.001 m -274.716,-42.137 q -51.75,58.775 -67.238,90.655 m 999.05604,-44.631 q -33.072,42.184 -38.567,68.94 M 285.73975,411.17105 q -1.719,8.39 3.898,18.339 m 635.69201,6.101 q 8.743,33.951 53.151,89.163 m -652.99801,-64.162 q 48.99901,0.358 117.00601,47.518 m -152.85101,-78.62 q 11.702,8.382 35.845,31.102 m -35.845,-31.102 q -58.638,72.928 -70.16,117.792 m 106.005,-86.69 q -29.91,85.824 10.523,175.858 m 947.36505,-182.828 q 1.204,1.16 3.971,3.909 m -502.89904,2.061 q -29.351,48.606 -23.59,87.777 m -157.699,-62.829 q -2.049,24.738 18.681,56.948 m 1071.02704,-66.654 q 50.13,6.74 125.776,63.791 m -1697.25905,-38.655 q 39.58801,4.036 98.099,47.312 m 1067.86405,-89.751 q 0.216,27.971 27.152,66.803 m -1193.11505,-24.364 q -45.573005,44.912 -65.734005,63.529 m 1637.217055,-88.665 q -8.037,4.281 -15.058,2.54 m 255.366,70.448 q -55.589,20.226 -113.092,-4.785 m -142.274,-65.663 q -18.207,21.712 -22.672,34.355 m 278.038,36.093 q 3.627,3.609 12.073,12.047 m -1502.75404,-51.759 q -3.643,12.568 3.297,26.455 m 1499.45704,25.304 q 59.51,-32.852 110.402,-21.543 m -652.508,-5.765 q 81.059,-20.449 173.521,28.51 m 78.474,-49.342 q 18.679,54.288 96.178,147.049 m -96.178,-147.049 q -47.836,38.917 -76.829,47.103 m 366.94,1.037 q -26.1,45.863 -18.463,84.341 M 445.78576,534.58505 q -75.267,72.899 -109.78001,101.885 m 1482.63205,-97.825 q -0.162,1.918 1.44,4.412 m -750.0131,-23.258 q 29.069,11.024 79.711,53.933 m -703.98994,-39.147 q 26.883,25.687 88.47,86.761 m 535.80894,-101.547 q -26.538,16.505 -47.4659,14.023 m 797.479,9.235 q -11.09,22.945 -4.552,44.069 m -1596.04805,-39.824 q -8.962,30.477 7.687,64.03 m 394.67001,-69.824 q 33.534,-4.405 75.647,21.449 m -75.647,-21.449 q -59.757,57.435 -87.579,79.838 m 444.225,-96.572 q 20.249,-4.3 44.11804,9.048 m -44.11804,-9.048 q -36.899,37.246 -52.382,53.539 m 476.87904,-45.874 q -42.625,13.654 -88.484,-8.085 m 88.484,8.085 q 0.052,0.039 0.159,0.142 -6.345,40.59 23.549,90.6 m -404.087,-89.359 q -15.016,53.079 14.7989,112.077 m 113.648,-71.02 q 47.118,-18.096 94.951,1.788 m 68.4971,-52.313 q -15.549,17.734 -20.133,27.414 m -596.87904,11.189 q 34.799,-20.458 63.371,-15.568 m 165.246,30.924 q -56.228,30.798 -104.545,19.777 m 328.22194,-24.358 q 0.405,0.32 1.27,1.147 m 664.4801,12.247 q 44.206,6.301 111.254,57.104 m -775.7341,-69.351 q -30.613,52.478 -22.909,95.792 m -430.65494,-107.714 q -48.91,86.638 -33.94,159.7 m 97.311,-175.268 q 10.214,12.338 36.069,39.104 m 129.177,-8.18 q -12.109,54.504 23.077,118.238 m 345.18504,-144.783 q -29.162,22.122 -48.3641,24.899 m 332.3061,-17.815 q -1.271,1.449 -1.645,2.239 m -282.297,-9.323 q -6.291,44.581 27.48,100.153 m 254.817,-90.83 q -19.826,47.941 -1.546,95.263 m 240.414,-69.228 q -42.151,46.691 -55.89,71.027 m -513.6391,-81.486 q -46.348,83.468 -30.858,154.593 m 211.5471,-108.079 q 57.08,-4.291 131.819,44.146 m -1331.34005,-55.995 q -88.12299,40.213 -171.520005,11.817 m 1371.041055,0.032 q -30.46,45.666 -29.034,79.718 m -600.73004,-116.406 q -66.217,90.463 -71.505,152.323 m 71.505,-152.323 q 9.996,0.872 24.632,11.597 -3.622,31.475 21.353,71.49 m 194.49094,-23.681 q 40.415,-5.761 90.739,24.772 m -90.739,-24.772 q -34.1419,40.047 -43.14994,62.835 m 327.59304,-56.813 q 27.71,10.327 75.811,50.978 m -75.811,-50.978 q -53.152,60.429 -69.0011,93.257 M 227.16475,611.33205 q 9.642,16.37 38.547,48.159 m 1661.06805,-15.261 q 0.53,10.51 11.273,25.529 m -1095.14604,-0.179 q 35.846,1.055 86.353,36.651 m -548,-29.544 q 78.751,-38.593 150.748,-16.887 m 310.899,9.78 q -30.237,41.581 -32.392,70.204 m -276.259,-118.438 q -8.815,19.676 -2.248,38.454 m 1406.04504,9.959 q 61.165,-29.44 117.592,-11.844 m -1719.63905,-21.445 q -10.933,13.681 -13.001,22.163 m 805.13195,12.038 q -1.119,29.755 25.673,69.779 m -772.54994,-63.763 q 10.123,34.248 56.721,91.185 m -56.721,-91.185 q -25.51701,2.624 -58.25501,-18.054 m 1615.04805,11.126 q -23.653,30.82 -26.963,50.856 m -159.78,-61.817 q 4.292,-1.988 8.326,-0.645 m -8.326,0.645 q -46.094,36.944 -74.564,44.062 m 82.89,-44.707 q 22.691,24.176 77.052,79.173 m -261.576,-80.972 q 30.8,6.531 79.554,44.884 m -79.554,-44.884 q -10.498,8.808 -16.607,10.973 -52.231,59.272 -67.91,91.381 m -958.58704,-98.908 q 0.381,6.028 6.649,14.716 m 410.519,22.035 q -11.894,8.824 -19.916,9.68 m 19.916,-9.68 q 20.099,-2.923 45.072,12.183 m -728.53601,-49.243 q -84.08,72.558 -131.088,92.681 m 404.03301,-77.656 q 52.814,-0.907 124.885,48.141 m 265.718,-16.426 q -42.128,52.036 -50.745,83.774 m -555.51001,-131.372 q -16.427,11.677 -27.991,12.157 m 1102.63805,32.109 q -1.513,8.559 4.55,18.939 m -863.54504,-47.322 q -14.218,21.301 -13.566,37.177 m -259.37901,-52.202 q 12.391,-0.211 29.302,11.299 m 230.07701,40.903 q -54.791,45.511 -87.11,56.179 m 556.267,-59.138 q 10.44704,30.902 54.30494,83.526 m 353.6491,-70.422 q -70.45,49.292 -120.793,50.267 m 373.257,-70.867 q 10.715,-3.605 22.08,1.622 m -22.08,-1.622 q -71.24,98.268 -76.029,166.125 m -1053.54604,-155.67 q -13.773,47.975 12.897,101.109 m 1138.75804,-109.942 q -0.113,50.281 47.617,119.609 m -913.84804,-82.685 q -42.356,16.536 -85.098,-0.968 m -430.40301,-68.026 q -4.689,14.992 3.114,31.23 m 512.38701,37.764 q 16.173,14.578 52.391,50.112 m 539.29604,-68.058 q 15.915,10.216 47.622,39.482 m 461.266,-40.705 q -40.544,23.236 -74.402,16.711 m -1538.56005,-35.306 q 30.282,45.689 115.61301,137.623 m 1497.34904,-119.028 q 13.758,35.012 66.104,96.467 M 298.12775,702.02005 q -47.489,76.306 -40.396,136.453 m 180.24901,-70.601 q -26.474,40.733 -24.24,71.771 m 249.801,-116.986 q 6.78,10.773 26.402,32.107 m 525.19494,-23.504 q -32.503,16.861 -61.329,9.19 m 61.329,-9.19 q 16.067,-0.581 37.701,13.918 m 583.8481,-7.852 q -11.98,17.98 -11.401,31.399 m -1099.87004,-29.909 q -20.926,15.069 -35.473,15.948 m 562.89594,-9.586 q 8.8991,7.749 28.5691,26.927 m -1146.78505,-19.933 q -37.307005,10.341 -78.979005,-10.91 m 78.979005,10.91 q 10.58701,25.237 49.242,70.17 m 1641.42105,-53.617 q -61.211,47.057 -100.924,53.744 m -570.5531,-82.019 q -33.172,35.156 -45.497,52.113 m 716.9741,-23.838 q -2.303,45.387 37.742,105.872 m -372.434,-115.889 q -20.908,9.46 -40.771,2.612 m -911.83604,51.482 q 73.857,-31.91 145.46,-5.637 m 807.14704,-48.457 q 22.29,36.719 88.042,108.655 m -128.813,-106.043 q -62.568,80.559 -72.248,132.22 m -96.167,-121.435 q -9.634,45.619 20.508,99.442 m -439.01104,-81.651 q 7.782,-3.067 15.609,0.109 m -15.609,-0.109 q -79.508,83.322 -109.95,122.665 m -63.012,-157.797 q -13.728,27.5 -6.496,52.401 m 195.067,-17.16 q 22.331,16.823 69.191,61.321 m -409.718,-38.524 q -26.891,31.605 -33.926,49.639 m -320.19601,-40.099 q 33.706,-6.708 73.866,16.131 m -73.866,-16.131 q -24.96499,28.455 -32.33999,43.974 m 897.02694,-74.056 q -62.23694,49.702 -100.84694,59.066 m 100.84694,-59.066 q 14.96,-2.864 32.893,7.431 m 895.7481,17.391 q -68.586,51.59 -114.165,57.515 m -138.666,-52.128 q -16.016,25.712 -13.646,45.965 m -602.4041,-75.871 q 24.764,33.509 90.875,103.367 m -90.875,-103.367 q -14.859,8.937 -26.867,7.128 m -929.91994,66.625 q 13.09399,14.539 45.02399,47.089 m 1780.64405,-96.323 q 3.582,-0.163 8.373,3.023 m -904.1211,-20.414 q -37.824,78.651 -15.152,151.241 m -914.76794,-84.616 q -59.778015,48.77 -95.881015,59.187 M 1985.5668,820.10505 q -50.966,81.223 -43.994,144.848 m 43.994,-144.848 q 34.147,-11.784 70.078,4.462 m -1372.19704,-17.402 q -4.582,32.052 19.617,71.95 m -445.33301,-40.642 q 5.224,22.69 34.048,59 m 121.96101,-57.83 q -1.464,5.195 1.463,10.976 m 88.858,11.822 q -42.064,11.86 -88.858,-11.822 m 532.502,0.707 q -22.282,40.993 -14.011,76.381 m 645.37504,-58.962 q -93.389,58.676 -166.473,50.762 m -1216.04705,-6.102 q 50.801,-27.012 95.23,-15.932 m -95.23,15.932 Q 109.75175,996.25405 68.792745,1028 M 504.06176,862.44105 q 12.503,32.663 60.876,89.676 m 634.24994,-56.187 q -77.447,54.08 -132.894,55.002 m -651.08994,-100.313 q -27.977,28.193 -39.762,40.482 m 1487.58704,-16.504 q -17.204,24.118 -17.991,41.04 m -134.321,-47.203 q -58.021,34.989 -104.82,28.051 m 104.82,-28.051 q 31.035,16.977 90.063,69.98 m -498.863,-66.867 q -49.7871,34.277 -85.8961,34.196 m 85.8961,-34.196 q 18.142,2.125 45.219,22.337 m -147.9481,2.046 q 6.454,1.54 16.833,9.813 m 362.6161,-38.38 q -0.06,0.604 0.433,1.382 7.865,8.505 26.827,27.74 m -0.11,1.218 q 43.283,37.411 138.686,130.29695 M 375.44176,891.10105 q 19.647,49.639 94.054,136.89895 m -94.054,-136.89895 q -38.57601,23.739 -69.23801,19.784 m 909.81695,-5.142 q -34.784,65.262 -20.666,122.25695 M 703.06476,879.11505 q -83.664,64.126 -138.127,73.002 m 812.63804,-58.577 q -15.289,6.26 -30.44,0.344 m -413.44104,33.823 q 59.033,-11.303 129.79094,29.311 m 314.0901,-63.478 q 12.318,5.979 35.021,25.967 m -65.461,-25.623 q -47.979,75.52 -42.313,134.11595 M 291.77975,897.47305 q 4.53,3.821 14.424,13.412 m 396.86101,-31.77 q 18.256,6.745 49.891,33.446 m 1092.08204,3.076 q 38.405,5.351 96.535,49.316 m -96.535,-49.316 q -26.684,20.24 -44.258,22.777 m -194.883,-41.929 q -0.299,0.631 -0.11,1.218 m -193.19,21.804 q -0.033,45.58 43.331,108.49295 m 149.859,-130.29695 q -43.143,71.982 -34.166,130.29695 M 917.56576,943.43605 q -71.094,23.892 -146.519,-10.824 m -464.84301,-21.727 q -38.196,64.467 -29.547,117.11495 M 933.69476,927.70705 q -11.21,11.09 -16.129,15.729 m 148.72794,7.496 q -2.622,3.604 -2.808,6.086 m -307.33494,-39.372 q -68.204,73.63 -92.267,110.35395 M 1941.5728,964.95305 q 15.119,20.432 55.457,63.04695 M 752.95576,912.56105 q 0.581,1.904 3.195,5.085 m 307.33494,39.372 q -1.41,30.376 25.574,70.98195 M 756.15076,917.64605 q 4.455,4.504 14.896,14.966 m 146.519,10.824 q -11.783,40.23 10.26,84.56395 m 872.95404,-89.58595 q -27.707,48.709 -19.579,89.58595 M 771.04676,932.61205 q -15.867,46.41 6.42,95.38795 m -212.529,-75.88295 q -26.315,42.397 -22.277,75.88295 m 121.223,0 q 56.792,-22.7169 113.583,0 75.179,-30.07195 150.359,0 m 853.37504,0 q 107.914,-43.16595 215.829,0 m -1069.20404,0 q 80.61704,-32.24695 161.23394,0 m 215.7631,0 q 75.553,-30.22095 151.105,0 m -913.26704,0 q 60.612,-24.2449 121.223,0 m -387.22701,0 q 96.42001,-38.56795 192.83901,0 m 1102.12504,0 q 86.426,-34.56995 172.852,0 m -549.1181,0 q 54.734,-21.8939 109.4681,0 m 439.65,0 q 18.364,-7.3459 36.728,0 m -692.1411,0 q 53.148,-21.2589 106.295,0 m -1126.561955,0 q 103.932005,-41.57295 207.864005,0 m 1179.27105,0 q 57.846,-23.1389 115.693,0 m -1102.12504,0 q 36.582,-14.6329 73.165,0 m 1454.36904,0 q 29.307,-11.7229 58.615,0 40.687,-101.71595 0,-203.43295 M 55.644745,925.50305 q -20.499,51.249 0,102.49695 6.574,-2.6299 13.148,0 m -13.148,-286.73795 q -36.848,92.121 0,184.241 M 2055.6448,824.56705 q 33.33,-83.326 0,-166.652 M 55.644745,623.14905 q -23.623,59.057 0,118.113 m 2000.000055,-83.347 q 23.914,-59.784 0,-119.569 m -2000.000055,25.173 q -11.926,29.815 0,59.63 m 2000.000055,-84.803 q 22.853,-57.133 0,-114.266 M 55.644745,367.18905 q -39.266,98.165 0,196.33 m 0,-270.448 q -14.824,37.059 0,74.118 m 2000.000055,56.891 q 24.213,-60.533 0,-121.066 M 55.644745,219.27305 q -14.76,36.899 0,73.798 m 2000.000055,9.943 q 24.634,-61.586 0,-123.172 M 1105.0937,28.000032 q -42.167,16.867 -84.3349,0 m 752.749,0 q -39.253,15.701 -78.507,0 m 248.733,0 q -85.113,34.045 -170.226,0 m -1616.56504,0 q -50.64901,20.26 -101.298015,0 -38.255,95.635998 0,191.273018 M 251.08175,28.000032 q -47.069,18.828 -94.13899,0 M 2055.6448,179.84205 q 30.368,-75.92102 0,-151.842018 -55.955,22.382 -111.911,0 m -1360.91504,0 q -68.119,27.248 -136.238,0 m 1014.00104,0 q -76.883,30.753 -153.767,0 -100.8601,40.344 -201.7211,0 m -276.59394,0 q -49.752,19.901 -99.504,0 m 817.87504,0 q -43.144,17.258 -86.289,0 m -731.58604,0 q -73.088,29.236 -146.177,0 m -136.238,0 q -97.74901,39.1 -195.49901,0 m 769.67705,0 q -96.12904,38.452 -192.25904,0 m 866.50104,0 q -74.065,29.626 -148.13,0"
     id="path2" />
</svg>
